<mxfile host="www.draw.io" modified="2019-11-03T21:33:02.854Z" agent="Mozilla/5.0 (Windows NT 10.0; Win64; x64; rv:71.0) Gecko/20100101 Firefox/71.0" etag="t0-i9esBVLooHDXjBrM-" version="12.1.9" type="github" pages="1">
  <diagram id="DlH3Y_NX8wnxPJ1CbBNf" name="Page-1">
    <mxGraphModel dx="1874" dy="2761" grid="1" gridSize="10" guides="1" tooltips="1" connect="1" arrows="1" fold="1" page="1" pageScale="1" pageWidth="850" pageHeight="1100" math="0" shadow="0">
      <root>
        <mxCell id="0"/>
        <mxCell id="1" parent="0"/>
        <mxCell id="sQQmF4ldZeJKrUhW-fq7-21" style="edgeStyle=none;rounded=0;orthogonalLoop=1;jettySize=auto;html=1;entryX=0;entryY=0.435;entryDx=0;entryDy=0;entryPerimeter=0;startArrow=none;startFill=0;endArrow=ERmany;endFill=0;" parent="1" source="sQQmF4ldZeJKrUhW-fq7-1" target="sQQmF4ldZeJKrUhW-fq7-19" edge="1">
          <mxGeometry relative="1" as="geometry"/>
        </mxCell>
        <mxCell id="sQQmF4ldZeJKrUhW-fq7-93" style="edgeStyle=orthogonalEdgeStyle;rounded=0;orthogonalLoop=1;jettySize=auto;html=1;exitX=1;exitY=0.25;exitDx=0;exitDy=0;entryX=0;entryY=0.25;entryDx=0;entryDy=0;startArrow=none;startFill=0;endArrow=ERoneToMany;endFill=0;strokeColor=#000000;dashed=1;" parent="1" source="sQQmF4ldZeJKrUhW-fq7-1" target="sQQmF4ldZeJKrUhW-fq7-87" edge="1">
          <mxGeometry relative="1" as="geometry">
            <Array as="points">
              <mxPoint x="-393" y="-660"/>
              <mxPoint x="-393" y="-998"/>
            </Array>
          </mxGeometry>
        </mxCell>
        <mxCell id="sQQmF4ldZeJKrUhW-fq7-1" value="Club de lectura" style="swimlane;fontStyle=0;childLayout=stackLayout;horizontal=1;startSize=22;fillColor=none;horizontalStack=0;resizeParent=1;resizeParentMax=0;resizeLast=0;collapsible=1;marginBottom=0;swimlaneFillColor=#ffffff;align=center;fontSize=14;" parent="1" vertex="1">
          <mxGeometry x="-583" y="-680" width="150" height="80" as="geometry"/>
        </mxCell>
        <mxCell id="sQQmF4ldZeJKrUhW-fq7-2" value="#* id&#xa;* nombre&#xa;* fecha de creación&#xa;" style="text;strokeColor=none;fillColor=none;spacingLeft=4;spacingRight=4;overflow=hidden;rotatable=0;points=[[0,0.5],[1,0.5]];portConstraint=eastwest;fontSize=12;" parent="sQQmF4ldZeJKrUhW-fq7-1" vertex="1">
          <mxGeometry y="22" width="150" height="58" as="geometry"/>
        </mxCell>
        <mxCell id="sQQmF4ldZeJKrUhW-fq7-6" value="Paìs" style="swimlane;fontStyle=0;childLayout=stackLayout;horizontal=1;startSize=22;fillColor=none;horizontalStack=0;resizeParent=1;resizeParentMax=0;resizeLast=0;collapsible=1;marginBottom=0;swimlaneFillColor=#ffffff;align=center;fontSize=14;" parent="1" vertex="1">
          <mxGeometry x="-573" y="-410" width="140" height="70" as="geometry"/>
        </mxCell>
        <mxCell id="sQQmF4ldZeJKrUhW-fq7-7" value="#* id&#xa;* nombre" style="text;strokeColor=none;fillColor=none;spacingLeft=4;spacingRight=4;overflow=hidden;rotatable=0;points=[[0,0.5],[1,0.5]];portConstraint=eastwest;fontSize=12;" parent="sQQmF4ldZeJKrUhW-fq7-6" vertex="1">
          <mxGeometry y="22" width="140" height="48" as="geometry"/>
        </mxCell>
        <mxCell id="sQQmF4ldZeJKrUhW-fq7-15" value="" style="rounded=0;orthogonalLoop=1;jettySize=auto;html=1;endArrow=none;endFill=0;startArrow=ERmany;startFill=0;" parent="1" source="sQQmF4ldZeJKrUhW-fq7-8" target="sQQmF4ldZeJKrUhW-fq7-7" edge="1">
          <mxGeometry relative="1" as="geometry"/>
        </mxCell>
        <mxCell id="sQQmF4ldZeJKrUhW-fq7-8" value="Ciudad" style="swimlane;fontStyle=0;childLayout=stackLayout;horizontal=1;startSize=22;fillColor=none;horizontalStack=0;resizeParent=1;resizeParentMax=0;resizeLast=0;collapsible=1;marginBottom=0;swimlaneFillColor=#ffffff;align=center;fontSize=14;" parent="1" vertex="1">
          <mxGeometry x="-573" y="-270" width="140" height="70" as="geometry"/>
        </mxCell>
        <mxCell id="sQQmF4ldZeJKrUhW-fq7-9" value="#* id&#xa;* nombre" style="text;strokeColor=none;fillColor=none;spacingLeft=4;spacingRight=4;overflow=hidden;rotatable=0;points=[[0,0.5],[1,0.5]];portConstraint=eastwest;fontSize=12;labelBorderColor=none;rounded=0;" parent="sQQmF4ldZeJKrUhW-fq7-8" vertex="1">
          <mxGeometry y="22" width="140" height="48" as="geometry"/>
        </mxCell>
        <mxCell id="sQQmF4ldZeJKrUhW-fq7-16" value="" style="edgeStyle=none;rounded=0;orthogonalLoop=1;jettySize=auto;html=1;startArrow=ERmany;startFill=0;endArrow=none;endFill=0;" parent="1" source="sQQmF4ldZeJKrUhW-fq7-10" target="sQQmF4ldZeJKrUhW-fq7-9" edge="1">
          <mxGeometry relative="1" as="geometry"/>
        </mxCell>
        <mxCell id="sQQmF4ldZeJKrUhW-fq7-10" value="Urbanización" style="swimlane;fontStyle=0;childLayout=stackLayout;horizontal=1;startSize=22;fillColor=none;horizontalStack=0;resizeParent=1;resizeParentMax=0;resizeLast=0;collapsible=1;marginBottom=0;swimlaneFillColor=#ffffff;align=center;fontSize=14;" parent="1" vertex="1">
          <mxGeometry x="-573" y="-120" width="140" height="70" as="geometry"/>
        </mxCell>
        <mxCell id="sQQmF4ldZeJKrUhW-fq7-11" value="#* id&#xa;* nombre" style="text;strokeColor=none;fillColor=none;spacingLeft=4;spacingRight=4;overflow=hidden;rotatable=0;points=[[0,0.5],[1,0.5]];portConstraint=eastwest;fontSize=12;" parent="sQQmF4ldZeJKrUhW-fq7-10" vertex="1">
          <mxGeometry y="22" width="140" height="48" as="geometry"/>
        </mxCell>
        <mxCell id="sQQmF4ldZeJKrUhW-fq7-17" value="" style="edgeStyle=none;rounded=0;orthogonalLoop=1;jettySize=auto;html=1;startArrow=ERmany;startFill=0;endArrow=none;endFill=0;" parent="1" source="sQQmF4ldZeJKrUhW-fq7-12" target="sQQmF4ldZeJKrUhW-fq7-11" edge="1">
          <mxGeometry relative="1" as="geometry"/>
        </mxCell>
        <mxCell id="sQQmF4ldZeJKrUhW-fq7-12" value="Calle" style="swimlane;fontStyle=0;childLayout=stackLayout;horizontal=1;startSize=22;fillColor=none;horizontalStack=0;resizeParent=1;resizeParentMax=0;resizeLast=0;collapsible=1;marginBottom=0;swimlaneFillColor=#ffffff;align=center;fontSize=14;" parent="1" vertex="1">
          <mxGeometry x="-573" y="30" width="140" height="80" as="geometry"/>
        </mxCell>
        <mxCell id="sQQmF4ldZeJKrUhW-fq7-13" value="#* id&#xa;* nombre&#xa;o código postal&#xa;" style="text;strokeColor=none;fillColor=none;spacingLeft=4;spacingRight=4;overflow=hidden;rotatable=0;points=[[0,0.5],[1,0.5]];portConstraint=eastwest;fontSize=12;" parent="sQQmF4ldZeJKrUhW-fq7-12" vertex="1">
          <mxGeometry y="22" width="140" height="58" as="geometry"/>
        </mxCell>
        <mxCell id="UAHOsp1mP3vzKwPEXrRI-18" style="edgeStyle=orthogonalEdgeStyle;rounded=0;orthogonalLoop=1;jettySize=auto;html=1;entryX=0.5;entryY=1;entryDx=0;entryDy=0;startArrow=none;startFill=0;endArrow=ERoneToMany;endFill=0;" edge="1" parent="1" source="sQQmF4ldZeJKrUhW-fq7-18" target="UAHOsp1mP3vzKwPEXrRI-14">
          <mxGeometry relative="1" as="geometry">
            <Array as="points">
              <mxPoint x="-360" y="-670"/>
              <mxPoint x="-360" y="-1040"/>
              <mxPoint x="-15" y="-1040"/>
            </Array>
          </mxGeometry>
        </mxCell>
        <mxCell id="sQQmF4ldZeJKrUhW-fq7-18" value="Lector" style="swimlane;fontStyle=0;childLayout=stackLayout;horizontal=1;startSize=22;fillColor=none;horizontalStack=0;resizeParent=1;resizeParentMax=0;resizeLast=0;collapsible=1;marginBottom=0;swimlaneFillColor=#ffffff;align=center;fontSize=14;" parent="1" vertex="1">
          <mxGeometry x="-303" y="-735" width="140" height="190" as="geometry"/>
        </mxCell>
        <mxCell id="sQQmF4ldZeJKrUhW-fq7-19" value="#* id&#xa;* primer nombre&#xa;o segundo nombre&#xa;* primer apellido&#xa;* segundo apellido&#xa;* fecha de nacimiento&#xa;* género&#xa;" style="text;strokeColor=none;fillColor=#ffffff;spacingLeft=4;spacingRight=4;overflow=hidden;rotatable=0;points=[[0,0.5],[1,0.5]];portConstraint=eastwest;fontSize=12;" parent="sQQmF4ldZeJKrUhW-fq7-18" vertex="1">
          <mxGeometry y="22" width="140" height="168" as="geometry"/>
        </mxCell>
        <mxCell id="sQQmF4ldZeJKrUhW-fq7-22" style="edgeStyle=none;rounded=0;orthogonalLoop=1;jettySize=auto;html=1;exitX=0.5;exitY=0;exitDx=0;exitDy=0;startArrow=none;startFill=0;endArrow=ERmany;endFill=0;" parent="1" source="sQQmF4ldZeJKrUhW-fq7-18" target="sQQmF4ldZeJKrUhW-fq7-18" edge="1">
          <mxGeometry relative="1" as="geometry"/>
        </mxCell>
        <mxCell id="sQQmF4ldZeJKrUhW-fq7-24" value="Institución" style="swimlane;fontStyle=0;childLayout=stackLayout;horizontal=1;startSize=22;fillColor=none;horizontalStack=0;resizeParent=1;resizeParentMax=0;resizeLast=0;collapsible=1;marginBottom=0;swimlaneFillColor=#ffffff;align=center;fontSize=14;" parent="1" vertex="1">
          <mxGeometry x="-830" y="-700" width="140" height="90" as="geometry"/>
        </mxCell>
        <mxCell id="sQQmF4ldZeJKrUhW-fq7-25" value="#* id&#xa;* nombre&#xa;* tipo&#xa;" style="text;strokeColor=none;fillColor=none;spacingLeft=4;spacingRight=4;overflow=hidden;rotatable=0;points=[[0,0.5],[1,0.5]];portConstraint=eastwest;fontSize=12;" parent="sQQmF4ldZeJKrUhW-fq7-24" vertex="1">
          <mxGeometry y="22" width="140" height="68" as="geometry"/>
        </mxCell>
        <mxCell id="sQQmF4ldZeJKrUhW-fq7-29" value="" style="endArrow=ERmany;dashed=1;html=1;endFill=0;" parent="1" edge="1">
          <mxGeometry width="50" height="50" relative="1" as="geometry">
            <mxPoint x="-643" y="-670" as="sourcePoint"/>
            <mxPoint x="-583" y="-670" as="targetPoint"/>
          </mxGeometry>
        </mxCell>
        <mxCell id="sQQmF4ldZeJKrUhW-fq7-30" value="" style="endArrow=none;html=1;dashed=1;" parent="1" edge="1">
          <mxGeometry width="50" height="50" relative="1" as="geometry">
            <mxPoint x="-690" y="-670" as="sourcePoint"/>
            <mxPoint x="-630" y="-670" as="targetPoint"/>
          </mxGeometry>
        </mxCell>
        <mxCell id="qw_lqS5V0hIstocsAN0Z-2" style="edgeStyle=none;rounded=0;orthogonalLoop=1;jettySize=auto;html=1;dashed=1;endArrow=none;endFill=0;" parent="1" source="sQQmF4ldZeJKrUhW-fq7-34" edge="1">
          <mxGeometry relative="1" as="geometry">
            <mxPoint x="-503" y="-730" as="targetPoint"/>
          </mxGeometry>
        </mxCell>
        <mxCell id="sQQmF4ldZeJKrUhW-fq7-34" value="Idioma" style="swimlane;fontStyle=0;childLayout=stackLayout;horizontal=1;startSize=22;fillColor=none;horizontalStack=0;resizeParent=1;resizeParentMax=0;resizeLast=0;collapsible=1;marginBottom=0;swimlaneFillColor=#ffffff;align=center;fontSize=14;" parent="1" vertex="1">
          <mxGeometry x="-573" y="-875" width="140" height="90" as="geometry"/>
        </mxCell>
        <mxCell id="sQQmF4ldZeJKrUhW-fq7-35" value="#* id&#xa;* nombre&#xa;" style="text;strokeColor=none;fillColor=none;spacingLeft=4;spacingRight=4;overflow=hidden;rotatable=0;points=[[0,0.5],[1,0.5]];portConstraint=eastwest;fontSize=12;" parent="sQQmF4ldZeJKrUhW-fq7-34" vertex="1">
          <mxGeometry y="22" width="140" height="68" as="geometry"/>
        </mxCell>
        <mxCell id="sQQmF4ldZeJKrUhW-fq7-37" value="C_C" style="swimlane;fontStyle=0;childLayout=stackLayout;horizontal=1;startSize=22;fillColor=none;horizontalStack=0;resizeParent=1;resizeParentMax=0;resizeLast=0;collapsible=1;marginBottom=0;swimlaneFillColor=#ffffff;align=center;fontSize=14;" parent="1" vertex="1">
          <mxGeometry x="-573" y="-550" width="140" height="80" as="geometry"/>
        </mxCell>
        <mxCell id="sQQmF4ldZeJKrUhW-fq7-39" style="edgeStyle=orthogonalEdgeStyle;rounded=0;orthogonalLoop=1;jettySize=auto;html=1;dashed=1;startArrow=none;startFill=0;endArrow=ERoneToMany;endFill=0;exitX=-0.012;exitY=0.822;exitDx=0;exitDy=0;exitPerimeter=0;strokeColor=#000000;" parent="1" source="sQQmF4ldZeJKrUhW-fq7-2" edge="1">
          <mxGeometry relative="1" as="geometry">
            <mxPoint x="-575" y="-500" as="targetPoint"/>
            <Array as="points">
              <mxPoint x="-593" y="-610"/>
              <mxPoint x="-593" y="-500"/>
            </Array>
          </mxGeometry>
        </mxCell>
        <mxCell id="sQQmF4ldZeJKrUhW-fq7-40" style="edgeStyle=orthogonalEdgeStyle;rounded=0;orthogonalLoop=1;jettySize=auto;html=1;dashed=1;startArrow=none;startFill=0;endArrow=ERoneToMany;endFill=0;strokeColor=#000000;entryX=1;entryY=0.75;entryDx=0;entryDy=0;" parent="1" source="sQQmF4ldZeJKrUhW-fq7-2" target="sQQmF4ldZeJKrUhW-fq7-37" edge="1">
          <mxGeometry relative="1" as="geometry">
            <mxPoint x="-393" y="-489.9999999999998" as="targetPoint"/>
            <Array as="points">
              <mxPoint x="-413" y="-610"/>
              <mxPoint x="-413" y="-490"/>
            </Array>
          </mxGeometry>
        </mxCell>
        <mxCell id="sQQmF4ldZeJKrUhW-fq7-41" style="edgeStyle=orthogonalEdgeStyle;rounded=0;orthogonalLoop=1;jettySize=auto;html=1;startArrow=ERmany;startFill=0;endArrow=none;endFill=0;strokeColor=#000000;" parent="1" source="sQQmF4ldZeJKrUhW-fq7-2" edge="1">
          <mxGeometry relative="1" as="geometry">
            <mxPoint x="-663" y="70" as="targetPoint"/>
          </mxGeometry>
        </mxCell>
        <mxCell id="sQQmF4ldZeJKrUhW-fq7-42" value="" style="endArrow=none;dashed=1;html=1;strokeColor=#000000;" parent="1" edge="1">
          <mxGeometry width="50" height="50" relative="1" as="geometry">
            <mxPoint x="-663" y="70" as="sourcePoint"/>
            <mxPoint x="-573" y="69" as="targetPoint"/>
          </mxGeometry>
        </mxCell>
        <mxCell id="sQQmF4ldZeJKrUhW-fq7-43" value="Grupo de lectura" style="swimlane;fontStyle=0;childLayout=stackLayout;horizontal=1;startSize=22;fillColor=none;horizontalStack=0;resizeParent=1;resizeParentMax=0;resizeLast=0;collapsible=1;marginBottom=0;swimlaneFillColor=#ffffff;align=center;fontSize=14;" parent="1" vertex="1">
          <mxGeometry x="-308" y="-490" width="150" height="80" as="geometry"/>
        </mxCell>
        <mxCell id="sQQmF4ldZeJKrUhW-fq7-44" value="#* id&#xa;* nombre&#xa;* tipo&#xa;" style="text;strokeColor=none;fillColor=none;spacingLeft=4;spacingRight=4;overflow=hidden;rotatable=0;points=[[0,0.5],[1,0.5]];portConstraint=eastwest;fontSize=12;" parent="sQQmF4ldZeJKrUhW-fq7-43" vertex="1">
          <mxGeometry y="22" width="150" height="58" as="geometry"/>
        </mxCell>
        <mxCell id="sQQmF4ldZeJKrUhW-fq7-45" style="edgeStyle=orthogonalEdgeStyle;rounded=0;orthogonalLoop=1;jettySize=auto;html=1;startArrow=none;startFill=0;endArrow=none;endFill=0;strokeColor=#000000;dashed=1;" parent="1" source="sQQmF4ldZeJKrUhW-fq7-64" edge="1">
          <mxGeometry relative="1" as="geometry">
            <mxPoint x="-363" y="-449.9999999999998" as="targetPoint"/>
          </mxGeometry>
        </mxCell>
        <mxCell id="sQQmF4ldZeJKrUhW-fq7-47" style="rounded=0;orthogonalLoop=1;jettySize=auto;html=1;startArrow=ERmany;startFill=0;endArrow=none;endFill=0;strokeColor=#000000;exitX=-0.011;exitY=0.305;exitDx=0;exitDy=0;exitPerimeter=0;" parent="1" source="sQQmF4ldZeJKrUhW-fq7-44" edge="1">
          <mxGeometry relative="1" as="geometry">
            <mxPoint x="-363" y="-449.9999999999998" as="targetPoint"/>
          </mxGeometry>
        </mxCell>
        <mxCell id="sQQmF4ldZeJKrUhW-fq7-55" style="edgeStyle=orthogonalEdgeStyle;rounded=0;orthogonalLoop=1;jettySize=auto;html=1;startArrow=ERmany;startFill=0;endArrow=none;endFill=0;strokeColor=#000000;" parent="1" source="sQQmF4ldZeJKrUhW-fq7-48" edge="1">
          <mxGeometry relative="1" as="geometry">
            <mxPoint x="97" y="-349.9999999999998" as="targetPoint"/>
            <Array as="points">
              <mxPoint x="147" y="-448"/>
              <mxPoint x="97" y="-448"/>
            </Array>
          </mxGeometry>
        </mxCell>
        <mxCell id="sQQmF4ldZeJKrUhW-fq7-59" style="edgeStyle=orthogonalEdgeStyle;rounded=0;orthogonalLoop=1;jettySize=auto;html=1;entryX=1;entryY=0.5;entryDx=0;entryDy=0;startArrow=none;startFill=0;endArrow=none;endFill=0;strokeColor=#000000;" parent="1" source="sQQmF4ldZeJKrUhW-fq7-48" target="sQQmF4ldZeJKrUhW-fq7-57" edge="1">
          <mxGeometry relative="1" as="geometry"/>
        </mxCell>
        <mxCell id="sQQmF4ldZeJKrUhW-fq7-48" value="Representante" style="swimlane;fontStyle=0;childLayout=stackLayout;horizontal=1;startSize=22;fillColor=none;horizontalStack=0;resizeParent=1;resizeParentMax=0;resizeLast=0;collapsible=1;marginBottom=0;swimlaneFillColor=#ffffff;align=center;fontSize=14;" parent="1" vertex="1">
          <mxGeometry x="107" y="-737" width="140" height="190" as="geometry"/>
        </mxCell>
        <mxCell id="sQQmF4ldZeJKrUhW-fq7-49" value="#* id&#xa;* primer nombre&#xa;o segundo nombre&#xa;* primer apellido&#xa;* segundo apellido&#xa;" style="text;strokeColor=none;fillColor=none;spacingLeft=4;spacingRight=4;overflow=hidden;rotatable=0;points=[[0,0.5],[1,0.5]];portConstraint=eastwest;fontSize=12;" parent="sQQmF4ldZeJKrUhW-fq7-48" vertex="1">
          <mxGeometry y="22" width="140" height="168" as="geometry"/>
        </mxCell>
        <mxCell id="sQQmF4ldZeJKrUhW-fq7-50" value="Autorización" style="swimlane;fontStyle=0;childLayout=stackLayout;horizontal=1;startSize=22;fillColor=none;horizontalStack=0;resizeParent=1;resizeParentMax=0;resizeLast=0;collapsible=1;marginBottom=0;swimlaneFillColor=#ffffff;align=center;fontSize=14;" parent="1" vertex="1">
          <mxGeometry x="-72" y="-795" width="140" height="90" as="geometry"/>
        </mxCell>
        <mxCell id="sQQmF4ldZeJKrUhW-fq7-51" value="#* id&#xa;* fecha de emisión&#xa;" style="text;strokeColor=none;fillColor=none;spacingLeft=4;spacingRight=4;overflow=hidden;rotatable=0;points=[[0,0.5],[1,0.5]];portConstraint=eastwest;fontSize=12;" parent="sQQmF4ldZeJKrUhW-fq7-50" vertex="1">
          <mxGeometry y="22" width="140" height="68" as="geometry"/>
        </mxCell>
        <mxCell id="sQQmF4ldZeJKrUhW-fq7-52" style="edgeStyle=orthogonalEdgeStyle;rounded=0;orthogonalLoop=1;jettySize=auto;html=1;startArrow=ERmany;startFill=0;endArrow=none;endFill=0;strokeColor=#000000;" parent="1" source="sQQmF4ldZeJKrUhW-fq7-19" edge="1">
          <mxGeometry relative="1" as="geometry">
            <mxPoint x="-83" y="-360" as="targetPoint"/>
            <Array as="points">
              <mxPoint x="-83" y="-590"/>
              <mxPoint x="-83" y="-360"/>
            </Array>
          </mxGeometry>
        </mxCell>
        <mxCell id="sQQmF4ldZeJKrUhW-fq7-53" style="edgeStyle=orthogonalEdgeStyle;rounded=0;orthogonalLoop=1;jettySize=auto;html=1;startArrow=none;startFill=0;endArrow=none;endFill=0;strokeColor=#000000;dashed=1;exitX=1.012;exitY=0.177;exitDx=0;exitDy=0;exitPerimeter=0;" parent="1" source="sQQmF4ldZeJKrUhW-fq7-13" edge="1">
          <mxGeometry relative="1" as="geometry">
            <mxPoint x="-83" y="-364" as="targetPoint"/>
            <Array as="points">
              <mxPoint x="-373" y="61"/>
              <mxPoint x="-373" y="-364"/>
            </Array>
          </mxGeometry>
        </mxCell>
        <mxCell id="sQQmF4ldZeJKrUhW-fq7-54" style="rounded=0;orthogonalLoop=1;jettySize=auto;html=1;startArrow=none;startFill=0;endArrow=none;endFill=0;strokeColor=#000000;dashed=1;exitX=1.006;exitY=0.375;exitDx=0;exitDy=0;exitPerimeter=0;edgeStyle=orthogonalEdgeStyle;" parent="1" source="sQQmF4ldZeJKrUhW-fq7-13" edge="1">
          <mxGeometry relative="1" as="geometry">
            <mxPoint x="97" y="-350" as="targetPoint"/>
            <mxPoint x="-423" y="-349.6666666666665" as="sourcePoint"/>
            <Array as="points">
              <mxPoint x="-432" y="70"/>
              <mxPoint x="97" y="70"/>
            </Array>
          </mxGeometry>
        </mxCell>
        <mxCell id="sQQmF4ldZeJKrUhW-fq7-58" style="edgeStyle=none;rounded=0;orthogonalLoop=1;jettySize=auto;html=1;entryX=0.5;entryY=0;entryDx=0;entryDy=0;startArrow=none;startFill=0;endArrow=none;endFill=0;strokeColor=#000000;" parent="1" source="sQQmF4ldZeJKrUhW-fq7-56" target="sQQmF4ldZeJKrUhW-fq7-18" edge="1">
          <mxGeometry relative="1" as="geometry"/>
        </mxCell>
        <mxCell id="sQQmF4ldZeJKrUhW-fq7-56" value="Membresía" style="swimlane;fontStyle=0;childLayout=stackLayout;horizontal=1;startSize=22;fillColor=none;horizontalStack=0;resizeParent=1;resizeParentMax=0;resizeLast=0;collapsible=1;marginBottom=0;swimlaneFillColor=#ffffff;align=center;fontSize=14;" parent="1" vertex="1">
          <mxGeometry x="-303" y="-910" width="140" height="90" as="geometry"/>
        </mxCell>
        <mxCell id="sQQmF4ldZeJKrUhW-fq7-57" value="#* id&#xa;* estátus&#xa;&#xa;" style="text;strokeColor=none;fillColor=none;spacingLeft=4;spacingRight=4;overflow=hidden;rotatable=0;points=[[0,0.5],[1,0.5]];portConstraint=eastwest;fontSize=12;" parent="sQQmF4ldZeJKrUhW-fq7-56" vertex="1">
          <mxGeometry y="22" width="140" height="68" as="geometry"/>
        </mxCell>
        <mxCell id="sQQmF4ldZeJKrUhW-fq7-60" value="" style="endArrow=none;html=1;strokeColor=#000000;edgeStyle=orthogonalEdgeStyle;curved=1;" parent="1" edge="1">
          <mxGeometry width="50" height="50" relative="1" as="geometry">
            <mxPoint x="-243" y="-756.5" as="sourcePoint"/>
            <mxPoint x="-123" y="-860" as="targetPoint"/>
          </mxGeometry>
        </mxCell>
        <mxCell id="sQQmF4ldZeJKrUhW-fq7-61" value="Pertenece" style="text;html=1;resizable=0;points=[];autosize=1;align=left;verticalAlign=top;spacingTop=-4;" parent="1" vertex="1">
          <mxGeometry x="-678" y="-690" width="70" height="20" as="geometry"/>
        </mxCell>
        <mxCell id="sQQmF4ldZeJKrUhW-fq7-62" value="Asociado con" style="text;html=1;resizable=0;points=[];autosize=1;align=left;verticalAlign=top;spacingTop=-4;rotation=-90;" parent="1" vertex="1">
          <mxGeometry x="-653" y="-545" width="90" height="20" as="geometry"/>
        </mxCell>
        <mxCell id="sQQmF4ldZeJKrUhW-fq7-63" value="Asociado con" style="text;html=1;resizable=0;points=[];autosize=1;align=left;verticalAlign=top;spacingTop=-4;rotation=90;" parent="1" vertex="1">
          <mxGeometry x="-443" y="-560" width="90" height="20" as="geometry"/>
        </mxCell>
        <mxCell id="sQQmF4ldZeJKrUhW-fq7-65" value="Tiene" style="text;html=1;resizable=0;points=[];autosize=1;align=left;verticalAlign=top;spacingTop=-4;" parent="1" vertex="1">
          <mxGeometry x="-433" y="-660" width="40" height="20" as="geometry"/>
        </mxCell>
        <mxCell id="sQQmF4ldZeJKrUhW-fq7-67" value="Habla" style="text;html=1;resizable=0;points=[];autosize=1;align=left;verticalAlign=top;spacingTop=-4;" parent="1" vertex="1">
          <mxGeometry x="-548" y="-710" width="50" height="20" as="geometry"/>
        </mxCell>
        <mxCell id="sQQmF4ldZeJKrUhW-fq7-69" value="Se ubica en" style="text;html=1;resizable=0;points=[];autosize=1;align=left;verticalAlign=top;spacingTop=-4;" parent="1" vertex="1">
          <mxGeometry x="-743" y="-310" width="80" height="20" as="geometry"/>
        </mxCell>
        <mxCell id="sQQmF4ldZeJKrUhW-fq7-70" value="Vive" style="text;html=1;resizable=0;points=[];autosize=1;align=left;verticalAlign=top;spacingTop=-4;" parent="1" vertex="1">
          <mxGeometry x="-158" y="-610" width="40" height="20" as="geometry"/>
        </mxCell>
        <mxCell id="sQQmF4ldZeJKrUhW-fq7-71" value="Vive" style="text;html=1;resizable=0;points=[];autosize=1;align=left;verticalAlign=top;spacingTop=-4;" parent="1" vertex="1">
          <mxGeometry x="117" y="-520" width="40" height="20" as="geometry"/>
        </mxCell>
        <mxCell id="sQQmF4ldZeJKrUhW-fq7-72" value="Es pagada por" style="text;html=1;resizable=0;points=[];autosize=1;align=left;verticalAlign=top;spacingTop=-4;" parent="1" vertex="1">
          <mxGeometry x="-223" y="-820" width="90" height="20" as="geometry"/>
        </mxCell>
        <mxCell id="sQQmF4ldZeJKrUhW-fq7-74" value="Pertenece" style="text;html=1;resizable=0;points=[];autosize=1;align=left;verticalAlign=top;spacingTop=-4;" parent="1" vertex="1">
          <mxGeometry x="-480" y="-302" width="70" height="20" as="geometry"/>
        </mxCell>
        <mxCell id="sQQmF4ldZeJKrUhW-fq7-75" value="Pertenece" style="text;html=1;resizable=0;points=[];autosize=1;align=left;verticalAlign=top;spacingTop=-4;" parent="1" vertex="1">
          <mxGeometry x="-480" y="-146" width="70" height="20" as="geometry"/>
        </mxCell>
        <mxCell id="sQQmF4ldZeJKrUhW-fq7-76" value="Pertenece" style="text;html=1;resizable=0;points=[];autosize=1;align=left;verticalAlign=top;spacingTop=-4;" parent="1" vertex="1">
          <mxGeometry x="-493" y="1.5" width="70" height="20" as="geometry"/>
        </mxCell>
        <mxCell id="sQQmF4ldZeJKrUhW-fq7-77" value="" style="endArrow=none;dashed=1;html=1;strokeColor=#000000;" parent="1" edge="1">
          <mxGeometry width="50" height="50" relative="1" as="geometry">
            <mxPoint x="-163" y="-680.5" as="sourcePoint"/>
            <mxPoint x="-83" y="-680" as="targetPoint"/>
          </mxGeometry>
        </mxCell>
        <mxCell id="sQQmF4ldZeJKrUhW-fq7-80" style="edgeStyle=orthogonalEdgeStyle;rounded=0;orthogonalLoop=1;jettySize=auto;html=1;startArrow=none;startFill=0;endArrow=ERmany;endFill=0;strokeColor=#000000;entryX=0.72;entryY=0.995;entryDx=0;entryDy=0;entryPerimeter=0;" parent="1" source="sQQmF4ldZeJKrUhW-fq7-49" target="sQQmF4ldZeJKrUhW-fq7-51" edge="1">
          <mxGeometry relative="1" as="geometry">
            <mxPoint x="-23" y="-629" as="targetPoint"/>
            <Array as="points">
              <mxPoint x="29" y="-620"/>
            </Array>
          </mxGeometry>
        </mxCell>
        <mxCell id="sQQmF4ldZeJKrUhW-fq7-82" value="Puede recibir" style="text;html=1;resizable=0;points=[];autosize=1;align=left;verticalAlign=top;spacingTop=-4;" parent="1" vertex="1">
          <mxGeometry x="-158" y="-705" width="90" height="20" as="geometry"/>
        </mxCell>
        <mxCell id="sQQmF4ldZeJKrUhW-fq7-83" value="Emite" style="text;html=1;resizable=0;points=[];autosize=1;align=left;verticalAlign=top;spacingTop=-4;" parent="1" vertex="1">
          <mxGeometry x="57" y="-640" width="50" height="20" as="geometry"/>
        </mxCell>
        <mxCell id="sQQmF4ldZeJKrUhW-fq7-87" value="Histórico de pago de membresía club" style="swimlane;fontStyle=0;childLayout=stackLayout;horizontal=1;startSize=22;fillColor=none;horizontalStack=0;resizeParent=1;resizeParentMax=0;resizeLast=0;collapsible=1;marginBottom=0;swimlaneFillColor=#ffffff;align=center;fontSize=14;" parent="1" vertex="1">
          <mxGeometry x="-153" y="-1020" width="240" height="90" as="geometry"/>
        </mxCell>
        <mxCell id="sQQmF4ldZeJKrUhW-fq7-88" value="#* fecha de solicitud de pago&#xa;o fecha de emisión de pago&#xa;* monto&#xa;" style="text;strokeColor=none;fillColor=none;spacingLeft=4;spacingRight=4;overflow=hidden;rotatable=0;points=[[0,0.5],[1,0.5]];portConstraint=eastwest;fontSize=12;" parent="sQQmF4ldZeJKrUhW-fq7-87" vertex="1">
          <mxGeometry y="22" width="240" height="68" as="geometry"/>
        </mxCell>
        <mxCell id="sQQmF4ldZeJKrUhW-fq7-92" style="edgeStyle=orthogonalEdgeStyle;rounded=0;orthogonalLoop=1;jettySize=auto;html=1;entryX=0.006;entryY=0.135;entryDx=0;entryDy=0;entryPerimeter=0;startArrow=ERoneToMany;startFill=0;endArrow=none;endFill=0;strokeColor=#000000;dashed=1;" parent="1" source="sQQmF4ldZeJKrUhW-fq7-88" target="sQQmF4ldZeJKrUhW-fq7-19" edge="1">
          <mxGeometry relative="1" as="geometry"/>
        </mxCell>
        <mxCell id="sQQmF4ldZeJKrUhW-fq7-94" value="Tiene" style="text;html=1;resizable=0;points=[];autosize=1;align=left;verticalAlign=top;spacingTop=-4;" parent="1" vertex="1">
          <mxGeometry x="-318" y="-765" width="40" height="20" as="geometry"/>
        </mxCell>
        <mxCell id="sQQmF4ldZeJKrUhW-fq7-95" value="Tiene" style="text;html=1;resizable=0;points=[];autosize=1;align=left;verticalAlign=top;spacingTop=-4;" parent="1" vertex="1">
          <mxGeometry x="-433" y="-680" width="40" height="20" as="geometry"/>
        </mxCell>
        <mxCell id="sQQmF4ldZeJKrUhW-fq7-64" value="Tiene" style="text;html=1;resizable=0;points=[];autosize=1;align=left;verticalAlign=top;spacingTop=-4;" parent="1" vertex="1">
          <mxGeometry x="-383" y="-590" width="40" height="20" as="geometry"/>
        </mxCell>
        <mxCell id="sQQmF4ldZeJKrUhW-fq7-96" style="edgeStyle=orthogonalEdgeStyle;rounded=0;orthogonalLoop=1;jettySize=auto;html=1;startArrow=none;startFill=0;endArrow=none;endFill=0;strokeColor=#000000;dashed=1;" parent="1" source="sQQmF4ldZeJKrUhW-fq7-2" target="sQQmF4ldZeJKrUhW-fq7-64" edge="1">
          <mxGeometry relative="1" as="geometry">
            <mxPoint x="-363" y="-449.9999999999998" as="targetPoint"/>
            <mxPoint x="-433" y="-628.6666666666665" as="sourcePoint"/>
          </mxGeometry>
        </mxCell>
        <mxCell id="sQQmF4ldZeJKrUhW-fq7-103" style="edgeStyle=orthogonalEdgeStyle;rounded=0;orthogonalLoop=1;jettySize=auto;html=1;dashed=1;startArrow=none;startFill=0;endArrow=ERoneToMany;endFill=0;strokeColor=#000000;entryX=0.375;entryY=1;entryDx=0;entryDy=0;entryPerimeter=0;" parent="1" source="sQQmF4ldZeJKrUhW-fq7-57" target="sQQmF4ldZeJKrUhW-fq7-88" edge="1">
          <mxGeometry relative="1" as="geometry">
            <mxPoint x="-63" y="-920" as="targetPoint"/>
            <Array as="points">
              <mxPoint x="-63" y="-880"/>
            </Array>
          </mxGeometry>
        </mxCell>
        <mxCell id="sQQmF4ldZeJKrUhW-fq7-104" value="Tiene" style="text;html=1;resizable=0;points=[];autosize=1;align=left;verticalAlign=top;spacingTop=-4;" parent="1" vertex="1">
          <mxGeometry x="-158" y="-900" width="40" height="20" as="geometry"/>
        </mxCell>
        <mxCell id="sQQmF4ldZeJKrUhW-fq7-105" value="Método de pago" style="swimlane;fontStyle=0;childLayout=stackLayout;horizontal=1;startSize=22;fillColor=none;horizontalStack=0;resizeParent=1;resizeParentMax=0;resizeLast=0;collapsible=1;marginBottom=0;swimlaneFillColor=#ffffff;align=center;fontSize=14;" parent="1" vertex="1">
          <mxGeometry x="-72" y="-480" width="150" height="110" as="geometry"/>
        </mxCell>
        <mxCell id="sQQmF4ldZeJKrUhW-fq7-109" value="" style="endArrow=none;html=1;strokeColor=#000000;edgeStyle=orthogonalEdgeStyle;" parent="sQQmF4ldZeJKrUhW-fq7-105" source="sQQmF4ldZeJKrUhW-fq7-105" edge="1">
          <mxGeometry width="50" height="50" relative="1" as="geometry">
            <mxPoint x="15" y="-2" as="sourcePoint"/>
            <mxPoint x="9" y="-130" as="targetPoint"/>
            <Array as="points">
              <mxPoint x="75" y="-100"/>
              <mxPoint x="9" y="-100"/>
            </Array>
          </mxGeometry>
        </mxCell>
        <mxCell id="sQQmF4ldZeJKrUhW-fq7-106" value="#* número de cuenta&#xa;* banco&#xa;* tipo&#xa;* fecha de vencimiento&#xa;* cvv/cid&#xa;" style="text;strokeColor=none;fillColor=none;spacingLeft=4;spacingRight=4;overflow=hidden;rotatable=0;points=[[0,0.5],[1,0.5]];portConstraint=eastwest;fontSize=12;" parent="sQQmF4ldZeJKrUhW-fq7-105" vertex="1">
          <mxGeometry y="22" width="150" height="88" as="geometry"/>
        </mxCell>
        <mxCell id="sQQmF4ldZeJKrUhW-fq7-111" value="" style="endArrow=none;html=1;strokeColor=#000000;edgeStyle=orthogonalEdgeStyle;curved=1;" parent="sQQmF4ldZeJKrUhW-fq7-105" edge="1">
          <mxGeometry width="50" height="50" relative="1" as="geometry">
            <mxPoint x="47" y="-19" as="sourcePoint"/>
            <mxPoint x="156" y="-30" as="targetPoint"/>
            <Array as="points">
              <mxPoint x="47" y="-40"/>
              <mxPoint x="156" y="-40"/>
            </Array>
          </mxGeometry>
        </mxCell>
        <mxCell id="sQQmF4ldZeJKrUhW-fq7-108" value="" style="endArrow=none;html=1;dashed=1;strokeColor=#000000;exitX=1;exitY=0.613;exitDx=0;exitDy=0;exitPerimeter=0;" parent="1" source="sQQmF4ldZeJKrUhW-fq7-19" edge="1">
          <mxGeometry width="50" height="50" relative="1" as="geometry">
            <mxPoint x="-163" y="-573.5" as="sourcePoint"/>
            <mxPoint x="-63" y="-610" as="targetPoint"/>
          </mxGeometry>
        </mxCell>
        <mxCell id="sQQmF4ldZeJKrUhW-fq7-110" value="" style="endArrow=none;html=1;strokeColor=#000000;edgeStyle=orthogonalEdgeStyle;" parent="1" target="sQQmF4ldZeJKrUhW-fq7-49" edge="1">
          <mxGeometry width="50" height="50" relative="1" as="geometry">
            <mxPoint x="47" y="-479" as="sourcePoint"/>
            <mxPoint x="27" y="-574" as="targetPoint"/>
            <Array as="points">
              <mxPoint x="47" y="-479"/>
              <mxPoint x="47" y="-574"/>
            </Array>
          </mxGeometry>
        </mxCell>
        <mxCell id="sQQmF4ldZeJKrUhW-fq7-112" value="Tiene" style="text;html=1;resizable=0;points=[];autosize=1;align=left;verticalAlign=top;spacingTop=-4;" parent="1" vertex="1">
          <mxGeometry x="-43" y="-545" width="40" height="20" as="geometry"/>
        </mxCell>
        <mxCell id="sQQmF4ldZeJKrUhW-fq7-113" value="" style="endArrow=none;html=1;strokeColor=#000000;edgeStyle=orthogonalEdgeStyle;entryX=1.004;entryY=0.854;entryDx=0;entryDy=0;entryPerimeter=0;" parent="1" target="sQQmF4ldZeJKrUhW-fq7-106" edge="1">
          <mxGeometry width="50" height="50" relative="1" as="geometry">
            <mxPoint x="-163" y="-870" as="sourcePoint"/>
            <mxPoint x="-113" y="-911.5" as="targetPoint"/>
            <Array as="points">
              <mxPoint x="257" y="-870"/>
              <mxPoint x="257" y="-383"/>
            </Array>
          </mxGeometry>
        </mxCell>
        <mxCell id="sQQmF4ldZeJKrUhW-fq7-114" value="Se paga por medio de" style="text;html=1;resizable=0;points=[];autosize=1;align=left;verticalAlign=top;spacingTop=-4;" parent="1" vertex="1">
          <mxGeometry x="-43" y="-890" width="130" height="20" as="geometry"/>
        </mxCell>
        <mxCell id="sQQmF4ldZeJKrUhW-fq7-115" value="Se usa para pagar" style="text;html=1;resizable=0;points=[];autosize=1;align=left;verticalAlign=top;spacingTop=-4;" parent="1" vertex="1">
          <mxGeometry x="112" y="-410" width="110" height="20" as="geometry"/>
        </mxCell>
        <mxCell id="sQQmF4ldZeJKrUhW-fq7-116" value="" style="endArrow=ERmany;html=1;strokeColor=#000000;dashed=1;endFill=0;" parent="1" edge="1">
          <mxGeometry width="50" height="50" relative="1" as="geometry">
            <mxPoint x="-233" y="-510" as="sourcePoint"/>
            <mxPoint x="-233" y="-543.5" as="targetPoint"/>
          </mxGeometry>
        </mxCell>
        <mxCell id="sQQmF4ldZeJKrUhW-fq7-117" value="" style="endArrow=none;html=1;strokeColor=#000000;" parent="1" edge="1">
          <mxGeometry width="50" height="50" relative="1" as="geometry">
            <mxPoint x="-233" y="-493.4999999999998" as="sourcePoint"/>
            <mxPoint x="-233" y="-510" as="targetPoint"/>
          </mxGeometry>
        </mxCell>
        <mxCell id="sQQmF4ldZeJKrUhW-fq7-118" value="Histórico de reuniones" style="swimlane;fontStyle=0;childLayout=stackLayout;horizontal=1;startSize=22;fillColor=none;horizontalStack=0;resizeParent=1;resizeParentMax=0;resizeLast=0;collapsible=1;marginBottom=0;swimlaneFillColor=#ffffff;align=center;fontSize=14;" parent="1" vertex="1">
          <mxGeometry x="-303" y="-310" width="170" height="100" as="geometry"/>
        </mxCell>
        <mxCell id="sQQmF4ldZeJKrUhW-fq7-119" value="#* fecha de inicio&#xa;o fecha fin&#xa;o valoración&#xa;o moderador&#xa;" style="text;strokeColor=none;fillColor=none;spacingLeft=4;spacingRight=4;overflow=hidden;rotatable=0;points=[[0,0.5],[1,0.5]];portConstraint=eastwest;fontSize=12;" parent="sQQmF4ldZeJKrUhW-fq7-118" vertex="1">
          <mxGeometry y="22" width="170" height="78" as="geometry"/>
        </mxCell>
        <mxCell id="sQQmF4ldZeJKrUhW-fq7-120" value="" style="endArrow=none;html=1;strokeColor=#000000;dashed=1;startArrow=ERoneToMany;startFill=0;" parent="1" edge="1">
          <mxGeometry width="50" height="50" relative="1" as="geometry">
            <mxPoint x="-233" y="-310" as="sourcePoint"/>
            <mxPoint x="-233" y="-410" as="targetPoint"/>
          </mxGeometry>
        </mxCell>
        <mxCell id="sQQmF4ldZeJKrUhW-fq7-123" style="edgeStyle=orthogonalEdgeStyle;rounded=0;orthogonalLoop=1;jettySize=auto;html=1;startArrow=ERoneToMany;startFill=0;endArrow=none;endFill=0;strokeColor=#000000;entryX=1.012;entryY=0.829;entryDx=0;entryDy=0;entryPerimeter=0;" parent="1" source="sQQmF4ldZeJKrUhW-fq7-119" target="sQQmF4ldZeJKrUhW-fq7-19" edge="1">
          <mxGeometry relative="1" as="geometry">
            <mxPoint x="-133" y="-519.9999999999998" as="targetPoint"/>
            <Array as="points">
              <mxPoint x="-113" y="-259"/>
              <mxPoint x="-113" y="-416"/>
              <mxPoint x="-143" y="-416"/>
              <mxPoint x="-143" y="-574"/>
            </Array>
          </mxGeometry>
        </mxCell>
        <mxCell id="sQQmF4ldZeJKrUhW-fq7-124" value="Teléfono" style="swimlane;fontStyle=0;childLayout=stackLayout;horizontal=1;startSize=22;fillColor=none;horizontalStack=0;resizeParent=1;resizeParentMax=0;resizeLast=0;collapsible=1;marginBottom=0;swimlaneFillColor=#ffffff;align=center;fontSize=14;" parent="1" vertex="1">
          <mxGeometry x="-329.5" y="-166" width="145" height="80" as="geometry"/>
        </mxCell>
        <mxCell id="sQQmF4ldZeJKrUhW-fq7-125" value="#* Código de país&#xa;#* Código de área&#xa;#* Número&#xa;" style="text;strokeColor=none;fillColor=none;spacingLeft=4;spacingRight=4;overflow=hidden;rotatable=0;points=[[0,0.5],[1,0.5]];portConstraint=eastwest;fontSize=12;" parent="sQQmF4ldZeJKrUhW-fq7-124" vertex="1">
          <mxGeometry y="22" width="145" height="58" as="geometry"/>
        </mxCell>
        <mxCell id="sQQmF4ldZeJKrUhW-fq7-126" value="" style="endArrow=none;html=1;strokeColor=#000000;edgeStyle=orthogonalEdgeStyle;exitX=0;exitY=0.5;exitDx=0;exitDy=0;startArrow=ERmany;startFill=0;" parent="1" source="sQQmF4ldZeJKrUhW-fq7-125" edge="1">
          <mxGeometry width="50" height="50" relative="1" as="geometry">
            <mxPoint x="-354.5" y="-550" as="sourcePoint"/>
            <mxPoint x="-304.5" y="-600" as="targetPoint"/>
            <Array as="points">
              <mxPoint x="-343" y="-115"/>
              <mxPoint x="-343" y="-600"/>
            </Array>
          </mxGeometry>
        </mxCell>
        <mxCell id="sQQmF4ldZeJKrUhW-fq7-127" value="Dueño de" style="text;html=1;resizable=0;points=[];autosize=1;align=left;verticalAlign=top;spacingTop=-4;" parent="1" vertex="1">
          <mxGeometry x="-355" y="-618.5" width="70" height="20" as="geometry"/>
        </mxCell>
        <mxCell id="sQQmF4ldZeJKrUhW-fq7-136" style="edgeStyle=orthogonalEdgeStyle;rounded=0;orthogonalLoop=1;jettySize=auto;html=1;entryX=-0.017;entryY=0.271;entryDx=0;entryDy=0;entryPerimeter=0;startArrow=ERoneToMany;startFill=0;endArrow=none;endFill=0;strokeColor=#000000;dashed=1;" parent="1" source="sQQmF4ldZeJKrUhW-fq7-128" target="sQQmF4ldZeJKrUhW-fq7-133" edge="1">
          <mxGeometry relative="1" as="geometry"/>
        </mxCell>
        <mxCell id="sQQmF4ldZeJKrUhW-fq7-128" value="Lista favoritos (L_L)" style="swimlane;fontStyle=0;childLayout=stackLayout;horizontal=1;startSize=22;fillColor=none;horizontalStack=0;resizeParent=1;resizeParentMax=0;resizeLast=0;collapsible=1;marginBottom=0;swimlaneFillColor=#ffffff;align=center;fontSize=14;" parent="1" vertex="1">
          <mxGeometry x="-53" y="-292" width="130" height="72" as="geometry"/>
        </mxCell>
        <mxCell id="sQQmF4ldZeJKrUhW-fq7-193" style="edgeStyle=orthogonalEdgeStyle;rounded=0;orthogonalLoop=1;jettySize=auto;html=1;startArrow=none;startFill=0;endArrow=none;endFill=0;strokeColor=#000000;dashed=1;" parent="1" source="sQQmF4ldZeJKrUhW-fq7-131" edge="1">
          <mxGeometry relative="1" as="geometry">
            <mxPoint x="437" y="-509.9999999999998" as="targetPoint"/>
          </mxGeometry>
        </mxCell>
        <mxCell id="sQQmF4ldZeJKrUhW-fq7-131" value="Libro" style="swimlane;fontStyle=0;childLayout=stackLayout;horizontal=1;startSize=22;fillColor=none;horizontalStack=0;resizeParent=1;resizeParentMax=0;resizeLast=0;collapsible=1;marginBottom=0;swimlaneFillColor=#ffffff;align=center;fontSize=14;" parent="1" vertex="1">
          <mxGeometry x="197" y="-360" width="240" height="180" as="geometry"/>
        </mxCell>
        <mxCell id="sQQmF4ldZeJKrUhW-fq7-168" value="" style="endArrow=none;dashed=1;html=1;strokeColor=#000000;edgeStyle=orthogonalEdgeStyle;entryX=1.003;entryY=0.117;entryDx=0;entryDy=0;entryPerimeter=0;curved=1;" parent="sQQmF4ldZeJKrUhW-fq7-131" target="sQQmF4ldZeJKrUhW-fq7-133" edge="1">
          <mxGeometry width="50" height="50" relative="1" as="geometry">
            <mxPoint x="190" as="sourcePoint"/>
            <mxPoint x="240" y="-50" as="targetPoint"/>
            <Array as="points">
              <mxPoint x="190" y="-30"/>
              <mxPoint x="260" y="-30"/>
              <mxPoint x="260" y="41"/>
            </Array>
          </mxGeometry>
        </mxCell>
        <mxCell id="sQQmF4ldZeJKrUhW-fq7-133" value="#* id&#xa;* título&#xa;o título original&#xa;* subgénero narrativo&#xa;* tipo&#xa;* tema principal&#xa;* sinopsis&#xa;o páginas&#xa;o año de publicación de primera edición&#xa;" style="text;strokeColor=none;fillColor=none;spacingLeft=4;spacingRight=4;overflow=hidden;rotatable=0;points=[[0,0.5],[1,0.5]];portConstraint=eastwest;fontSize=12;" parent="sQQmF4ldZeJKrUhW-fq7-131" vertex="1">
          <mxGeometry y="22" width="240" height="158" as="geometry"/>
        </mxCell>
        <mxCell id="sQQmF4ldZeJKrUhW-fq7-134" value="" style="endArrow=none;html=1;strokeColor=#000000;edgeStyle=orthogonalEdgeStyle;exitX=0;exitY=0.5;exitDx=0;exitDy=0;startArrow=ERoneToMany;startFill=0;" parent="1" source="sQQmF4ldZeJKrUhW-fq7-128" edge="1">
          <mxGeometry width="50" height="50" relative="1" as="geometry">
            <mxPoint x="-228" y="-496" as="sourcePoint"/>
            <mxPoint x="-178" y="-546" as="targetPoint"/>
            <Array as="points">
              <mxPoint x="-103" y="-256"/>
              <mxPoint x="-103" y="-510"/>
              <mxPoint x="-178" y="-510"/>
            </Array>
          </mxGeometry>
        </mxCell>
        <mxCell id="sQQmF4ldZeJKrUhW-fq7-135" value="Prefiere" style="text;html=1;resizable=0;points=[];autosize=1;align=left;verticalAlign=top;spacingTop=-4;" parent="1" vertex="1">
          <mxGeometry x="-203" y="-535" width="60" height="20" as="geometry"/>
        </mxCell>
        <mxCell id="sQQmF4ldZeJKrUhW-fq7-138" style="edgeStyle=orthogonalEdgeStyle;rounded=0;orthogonalLoop=1;jettySize=auto;html=1;startArrow=none;startFill=0;endArrow=ERoneToMany;endFill=0;strokeColor=#000000;" parent="1" source="sQQmF4ldZeJKrUhW-fq7-133" edge="1">
          <mxGeometry relative="1" as="geometry">
            <mxPoint x="-143" y="-210" as="targetPoint"/>
            <Array as="points">
              <mxPoint x="217" y="-160"/>
              <mxPoint x="-143" y="-160"/>
            </Array>
          </mxGeometry>
        </mxCell>
        <mxCell id="sQQmF4ldZeJKrUhW-fq7-148" style="edgeStyle=orthogonalEdgeStyle;rounded=0;orthogonalLoop=1;jettySize=auto;html=1;entryX=1.015;entryY=0.779;entryDx=0;entryDy=0;entryPerimeter=0;startArrow=none;startFill=0;endArrow=none;endFill=0;strokeColor=#000000;dashed=1;" parent="1" target="sQQmF4ldZeJKrUhW-fq7-119" edge="1">
          <mxGeometry relative="1" as="geometry">
            <Array as="points">
              <mxPoint x="-60" y="-190"/>
              <mxPoint x="-60" y="-227"/>
            </Array>
            <mxPoint x="-60" y="-190" as="sourcePoint"/>
          </mxGeometry>
        </mxCell>
        <mxCell id="sQQmF4ldZeJKrUhW-fq7-142" value="Conclusión" style="swimlane;fontStyle=0;childLayout=stackLayout;horizontal=1;startSize=22;fillColor=none;horizontalStack=0;resizeParent=1;resizeParentMax=0;resizeLast=0;collapsible=1;marginBottom=0;swimlaneFillColor=#ffffff;align=center;fontSize=14;" parent="1" vertex="1">
          <mxGeometry x="-123" y="-135" width="140" height="80" as="geometry"/>
        </mxCell>
        <mxCell id="sQQmF4ldZeJKrUhW-fq7-143" value="#* id&#xa;* valoración&#xa;o comentario&#xa;&#xa;&#xa;" style="text;strokeColor=none;fillColor=none;spacingLeft=4;spacingRight=4;overflow=hidden;rotatable=0;points=[[0,0.5],[1,0.5]];portConstraint=eastwest;fontSize=12;" parent="sQQmF4ldZeJKrUhW-fq7-142" vertex="1">
          <mxGeometry y="22" width="140" height="58" as="geometry"/>
        </mxCell>
        <mxCell id="sQQmF4ldZeJKrUhW-fq7-144" style="edgeStyle=orthogonalEdgeStyle;rounded=0;orthogonalLoop=1;jettySize=auto;html=1;startArrow=none;startFill=0;endArrow=ERmany;endFill=0;strokeColor=#000000;" parent="1" source="sQQmF4ldZeJKrUhW-fq7-13" target="sQQmF4ldZeJKrUhW-fq7-119" edge="1">
          <mxGeometry relative="1" as="geometry">
            <Array as="points">
              <mxPoint x="-313" y="76"/>
              <mxPoint x="-313" y="-60"/>
              <mxPoint x="-164" y="-60"/>
            </Array>
          </mxGeometry>
        </mxCell>
        <mxCell id="sQQmF4ldZeJKrUhW-fq7-146" value="Local evento" style="swimlane;fontStyle=0;childLayout=stackLayout;horizontal=1;startSize=22;fillColor=none;horizontalStack=0;resizeParent=1;resizeParentMax=0;resizeLast=0;collapsible=1;marginBottom=0;swimlaneFillColor=#ffffff;align=center;fontSize=14;" parent="1" vertex="1">
          <mxGeometry x="-285" y="100" width="140" height="100" as="geometry"/>
        </mxCell>
        <mxCell id="sQQmF4ldZeJKrUhW-fq7-147" value="#* id&#xa;* nombre&#xa;* tipo&#xa;* capacidad&#xa;* número&#xa;&#xa;" style="text;strokeColor=none;fillColor=none;spacingLeft=4;spacingRight=4;overflow=hidden;rotatable=0;points=[[0,0.5],[1,0.5]];portConstraint=eastwest;fontSize=12;" parent="sQQmF4ldZeJKrUhW-fq7-146" vertex="1">
          <mxGeometry y="22" width="140" height="78" as="geometry"/>
        </mxCell>
        <mxCell id="sQQmF4ldZeJKrUhW-fq7-149" value="Se ubica en" style="text;html=1;resizable=0;points=[];autosize=1;align=left;verticalAlign=top;spacingTop=-4;" parent="1" vertex="1">
          <mxGeometry x="-243" y="-202" width="80" height="20" as="geometry"/>
        </mxCell>
        <mxCell id="sQQmF4ldZeJKrUhW-fq7-150" value="Es sobre" style="text;html=1;resizable=0;points=[];autosize=1;align=left;verticalAlign=top;spacingTop=-4;" parent="1" vertex="1">
          <mxGeometry x="-138" y="-192" width="60" height="20" as="geometry"/>
        </mxCell>
        <mxCell id="sQQmF4ldZeJKrUhW-fq7-151" value="Sobre" style="text;html=1;resizable=0;points=[];autosize=1;align=left;verticalAlign=top;spacingTop=-4;" parent="1" vertex="1">
          <mxGeometry x="-48" y="-155" width="50" height="20" as="geometry"/>
        </mxCell>
        <mxCell id="sQQmF4ldZeJKrUhW-fq7-152" value="Tiene" style="text;html=1;resizable=0;points=[];autosize=1;align=left;verticalAlign=top;spacingTop=-4;" parent="1" vertex="1">
          <mxGeometry x="-145" y="-547" width="40" height="20" as="geometry"/>
        </mxCell>
        <mxCell id="sQQmF4ldZeJKrUhW-fq7-158" value="" style="rounded=0;orthogonalLoop=1;jettySize=auto;html=1;startArrow=none;startFill=0;endArrow=ERmany;endFill=0;strokeColor=#000000;entryX=0.705;entryY=1.003;entryDx=0;entryDy=0;entryPerimeter=0;" parent="1" source="sQQmF4ldZeJKrUhW-fq7-154" target="sQQmF4ldZeJKrUhW-fq7-133" edge="1">
          <mxGeometry relative="1" as="geometry"/>
        </mxCell>
        <mxCell id="sQQmF4ldZeJKrUhW-fq7-154" value="Editorial" style="swimlane;fontStyle=0;childLayout=stackLayout;horizontal=1;startSize=22;fillColor=none;horizontalStack=0;resizeParent=1;resizeParentMax=0;resizeLast=0;collapsible=1;marginBottom=0;swimlaneFillColor=#ffffff;align=center;fontSize=14;" parent="1" vertex="1">
          <mxGeometry x="297" y="-135" width="140" height="100" as="geometry"/>
        </mxCell>
        <mxCell id="sQQmF4ldZeJKrUhW-fq7-155" value="#* id&#xa;* nombre&#xa;&#xa;&#xa;" style="text;strokeColor=none;fillColor=none;spacingLeft=4;spacingRight=4;overflow=hidden;rotatable=0;points=[[0,0.5],[1,0.5]];portConstraint=eastwest;fontSize=12;" parent="sQQmF4ldZeJKrUhW-fq7-154" vertex="1">
          <mxGeometry y="22" width="140" height="78" as="geometry"/>
        </mxCell>
        <mxCell id="sQQmF4ldZeJKrUhW-fq7-160" style="edgeStyle=orthogonalEdgeStyle;rounded=0;orthogonalLoop=1;jettySize=auto;html=1;startArrow=ERoneToMany;startFill=0;endArrow=none;endFill=0;strokeColor=#000000;entryX=0.333;entryY=1.014;entryDx=0;entryDy=0;entryPerimeter=0;" parent="1" source="sQQmF4ldZeJKrUhW-fq7-156" target="sQQmF4ldZeJKrUhW-fq7-133" edge="1">
          <mxGeometry relative="1" as="geometry">
            <mxPoint x="277" y="-170" as="targetPoint"/>
            <Array as="points">
              <mxPoint x="187" y="-150"/>
              <mxPoint x="277" y="-150"/>
            </Array>
          </mxGeometry>
        </mxCell>
        <mxCell id="sQQmF4ldZeJKrUhW-fq7-156" value="G_L" style="swimlane;fontStyle=0;childLayout=stackLayout;horizontal=1;startSize=22;fillColor=none;horizontalStack=0;resizeParent=1;resizeParentMax=0;resizeLast=0;collapsible=1;marginBottom=0;swimlaneFillColor=#ffffff;align=center;fontSize=14;" parent="1" vertex="1">
          <mxGeometry x="117" y="-135" width="140" height="65" as="geometry"/>
        </mxCell>
        <mxCell id="sQQmF4ldZeJKrUhW-fq7-163" style="edgeStyle=orthogonalEdgeStyle;rounded=0;orthogonalLoop=1;jettySize=auto;html=1;entryX=0.5;entryY=1;entryDx=0;entryDy=0;startArrow=none;startFill=0;endArrow=ERoneToMany;endFill=0;strokeColor=#000000;" parent="1" source="sQQmF4ldZeJKrUhW-fq7-161" target="sQQmF4ldZeJKrUhW-fq7-156" edge="1">
          <mxGeometry relative="1" as="geometry"/>
        </mxCell>
        <mxCell id="sQQmF4ldZeJKrUhW-fq7-161" value="Género" style="swimlane;fontStyle=0;childLayout=stackLayout;horizontal=1;startSize=22;fillColor=none;horizontalStack=0;resizeParent=1;resizeParentMax=0;resizeLast=0;collapsible=1;marginBottom=0;swimlaneFillColor=#ffffff;align=center;fontSize=14;" parent="1" vertex="1">
          <mxGeometry x="207" y="-20" width="140" height="70" as="geometry"/>
        </mxCell>
        <mxCell id="sQQmF4ldZeJKrUhW-fq7-162" value="#* id&#xa;* nombre&#xa;&#xa;&#xa;" style="text;strokeColor=none;fillColor=none;spacingLeft=4;spacingRight=4;overflow=hidden;rotatable=0;points=[[0,0.5],[1,0.5]];portConstraint=eastwest;fontSize=12;" parent="sQQmF4ldZeJKrUhW-fq7-161" vertex="1">
          <mxGeometry y="22" width="140" height="48" as="geometry"/>
        </mxCell>
        <mxCell id="sQQmF4ldZeJKrUhW-fq7-165" value="" style="endArrow=none;dashed=1;html=1;strokeColor=#000000;edgeStyle=orthogonalEdgeStyle;exitX=0.986;exitY=0.292;exitDx=0;exitDy=0;exitPerimeter=0;" parent="1" source="sQQmF4ldZeJKrUhW-fq7-7" edge="1">
          <mxGeometry width="50" height="50" relative="1" as="geometry">
            <mxPoint x="-435" y="-340" as="sourcePoint"/>
            <mxPoint x="7" y="-320" as="targetPoint"/>
            <Array as="points">
              <mxPoint x="-383" y="-374"/>
              <mxPoint x="-383" y="-340"/>
              <mxPoint x="7" y="-340"/>
            </Array>
          </mxGeometry>
        </mxCell>
        <mxCell id="sQQmF4ldZeJKrUhW-fq7-166" value="" style="endArrow=ERmany;html=1;strokeColor=#000000;entryX=0.892;entryY=0.025;entryDx=0;entryDy=0;entryPerimeter=0;endFill=0;" parent="1" edge="1">
          <mxGeometry width="50" height="50" relative="1" as="geometry">
            <mxPoint x="7" y="-320" as="sourcePoint"/>
            <mxPoint x="196.19999999999982" y="-319.5" as="targetPoint"/>
          </mxGeometry>
        </mxCell>
        <mxCell id="sQQmF4ldZeJKrUhW-fq7-167" value="Publicado en" style="text;html=1;resizable=0;points=[];autosize=1;align=left;verticalAlign=top;spacingTop=-4;" parent="1" vertex="1">
          <mxGeometry x="112" y="-340" width="80" height="20" as="geometry"/>
        </mxCell>
        <mxCell id="sQQmF4ldZeJKrUhW-fq7-169" value="Predecedido por" style="text;html=1;resizable=0;points=[];autosize=1;align=left;verticalAlign=top;spacingTop=-4;rotation=40;" parent="1" vertex="1">
          <mxGeometry x="407" y="-398" width="100" height="20" as="geometry"/>
        </mxCell>
        <mxCell id="sQQmF4ldZeJKrUhW-fq7-171" style="edgeStyle=orthogonalEdgeStyle;curved=1;rounded=0;orthogonalLoop=1;jettySize=auto;html=1;startArrow=none;startFill=0;endArrow=ERmany;endFill=0;strokeColor=#000000;" parent="1" source="sQQmF4ldZeJKrUhW-fq7-133" edge="1">
          <mxGeometry relative="1" as="geometry">
            <mxPoint x="537" y="-259" as="targetPoint"/>
          </mxGeometry>
        </mxCell>
        <mxCell id="sQQmF4ldZeJKrUhW-fq7-176" value="" style="edgeStyle=orthogonalEdgeStyle;curved=1;rounded=0;orthogonalLoop=1;jettySize=auto;html=1;startArrow=none;startFill=0;endArrow=ERmany;endFill=0;strokeColor=#000000;" parent="1" target="sQQmF4ldZeJKrUhW-fq7-174" edge="1">
          <mxGeometry relative="1" as="geometry">
            <mxPoint x="607" y="-340" as="sourcePoint"/>
          </mxGeometry>
        </mxCell>
        <mxCell id="sQQmF4ldZeJKrUhW-fq7-177" value="" style="rounded=0;orthogonalLoop=1;jettySize=auto;html=1;startArrow=none;startFill=0;endArrow=none;endFill=0;strokeColor=#000000;dashed=1;" parent="1" source="sQQmF4ldZeJKrUhW-fq7-172" edge="1">
          <mxGeometry relative="1" as="geometry">
            <mxPoint x="607" y="-340" as="targetPoint"/>
          </mxGeometry>
        </mxCell>
        <mxCell id="sQQmF4ldZeJKrUhW-fq7-172" value="Estructura" style="swimlane;fontStyle=0;childLayout=stackLayout;horizontal=1;startSize=22;fillColor=none;horizontalStack=0;resizeParent=1;resizeParentMax=0;resizeLast=0;collapsible=1;marginBottom=0;swimlaneFillColor=#ffffff;align=center;fontSize=14;" parent="1" vertex="1">
          <mxGeometry x="537" y="-302" width="140" height="100" as="geometry"/>
        </mxCell>
        <mxCell id="sQQmF4ldZeJKrUhW-fq7-173" value="#* id&#xa;* tipo de numeración&#xa;* número&#xa;* nombre&#xa;&#xa;&#xa;" style="text;strokeColor=none;fillColor=none;spacingLeft=4;spacingRight=4;overflow=hidden;rotatable=0;points=[[0,0.5],[1,0.5]];portConstraint=eastwest;fontSize=12;" parent="sQQmF4ldZeJKrUhW-fq7-172" vertex="1">
          <mxGeometry y="22" width="140" height="78" as="geometry"/>
        </mxCell>
        <mxCell id="sQQmF4ldZeJKrUhW-fq7-174" value="Subestructura" style="swimlane;fontStyle=0;childLayout=stackLayout;horizontal=1;startSize=22;fillColor=none;horizontalStack=0;resizeParent=1;resizeParentMax=0;resizeLast=0;collapsible=1;marginBottom=0;swimlaneFillColor=#ffffff;align=center;fontSize=14;" parent="1" vertex="1">
          <mxGeometry x="537" y="-482" width="140" height="100" as="geometry"/>
        </mxCell>
        <mxCell id="sQQmF4ldZeJKrUhW-fq7-175" value="#* id&#xa;* número&#xa;* nombre&#xa;&#xa;&#xa;" style="text;strokeColor=none;fillColor=none;spacingLeft=4;spacingRight=4;overflow=hidden;rotatable=0;points=[[0,0.5],[1,0.5]];portConstraint=eastwest;fontSize=12;" parent="sQQmF4ldZeJKrUhW-fq7-174" vertex="1">
          <mxGeometry y="22" width="140" height="78" as="geometry"/>
        </mxCell>
        <mxCell id="sQQmF4ldZeJKrUhW-fq7-178" value="Tiene" style="text;html=1;resizable=0;points=[];autosize=1;align=left;verticalAlign=top;spacingTop=-4;" parent="1" vertex="1">
          <mxGeometry x="607" y="-330" width="50" height="20" as="geometry"/>
        </mxCell>
        <mxCell id="sQQmF4ldZeJKrUhW-fq7-179" value="Tiene" style="text;html=1;resizable=0;points=[];autosize=1;align=left;verticalAlign=top;spacingTop=-4;" parent="1" vertex="1">
          <mxGeometry x="437" y="-280" width="40" height="20" as="geometry"/>
        </mxCell>
        <mxCell id="sQQmF4ldZeJKrUhW-fq7-180" value="Tiene" style="text;html=1;resizable=0;points=[];autosize=1;align=left;verticalAlign=top;spacingTop=-4;" parent="1" vertex="1">
          <mxGeometry x="237" y="-176" width="40" height="20" as="geometry"/>
        </mxCell>
        <mxCell id="sQQmF4ldZeJKrUhW-fq7-183" value="Pertenece a" style="text;html=1;resizable=0;points=[];autosize=1;align=left;verticalAlign=top;spacingTop=-4;" parent="1" vertex="1">
          <mxGeometry x="207" y="-40" width="80" height="20" as="geometry"/>
        </mxCell>
        <mxCell id="sQQmF4ldZeJKrUhW-fq7-184" value="Publicado por" style="text;html=1;resizable=0;points=[];autosize=1;align=left;verticalAlign=top;spacingTop=-4;" parent="1" vertex="1">
          <mxGeometry x="377" y="-176" width="90" height="20" as="geometry"/>
        </mxCell>
        <mxCell id="sQQmF4ldZeJKrUhW-fq7-185" value="Moneda" style="swimlane;fontStyle=0;childLayout=stackLayout;horizontal=1;startSize=22;fillColor=none;horizontalStack=0;resizeParent=1;resizeParentMax=0;resizeLast=0;collapsible=1;marginBottom=0;swimlaneFillColor=#ffffff;align=center;fontSize=14;" parent="1" vertex="1">
          <mxGeometry x="277" y="-560" width="150" height="80" as="geometry"/>
        </mxCell>
        <mxCell id="sQQmF4ldZeJKrUhW-fq7-187" value="#* id&#xa;* nombre&#xa;" style="text;strokeColor=none;fillColor=none;spacingLeft=4;spacingRight=4;overflow=hidden;rotatable=0;points=[[0,0.5],[1,0.5]];portConstraint=eastwest;fontSize=12;" parent="sQQmF4ldZeJKrUhW-fq7-185" vertex="1">
          <mxGeometry y="22" width="150" height="58" as="geometry"/>
        </mxCell>
        <mxCell id="sQQmF4ldZeJKrUhW-fq7-188" style="edgeStyle=orthogonalEdgeStyle;rounded=0;orthogonalLoop=1;jettySize=auto;html=1;dashed=1;startArrow=ERmany;startFill=0;endArrow=none;endFill=0;strokeColor=#000000;" parent="1" source="sQQmF4ldZeJKrUhW-fq7-106" edge="1">
          <mxGeometry relative="1" as="geometry">
            <mxPoint x="163" y="-519" as="targetPoint"/>
          </mxGeometry>
        </mxCell>
        <mxCell id="sQQmF4ldZeJKrUhW-fq7-189" value="" style="endArrow=none;html=1;strokeColor=#000000;entryX=-0.007;entryY=0.379;entryDx=0;entryDy=0;entryPerimeter=0;" parent="1" target="sQQmF4ldZeJKrUhW-fq7-187" edge="1">
          <mxGeometry width="50" height="50" relative="1" as="geometry">
            <mxPoint x="162" y="-516.5" as="sourcePoint"/>
            <mxPoint x="246" y="-518" as="targetPoint"/>
          </mxGeometry>
        </mxCell>
        <mxCell id="sQQmF4ldZeJKrUhW-fq7-190" value="Tiene" style="text;html=1;resizable=0;points=[];autosize=1;align=left;verticalAlign=top;spacingTop=-4;" parent="1" vertex="1">
          <mxGeometry x="192" y="-535" width="40" height="20" as="geometry"/>
        </mxCell>
        <mxCell id="sQQmF4ldZeJKrUhW-fq7-191" value="Obra" style="swimlane;fontStyle=0;childLayout=stackLayout;horizontal=1;startSize=22;fillColor=none;horizontalStack=0;resizeParent=1;resizeParentMax=0;resizeLast=0;collapsible=1;marginBottom=0;swimlaneFillColor=#ffffff;align=center;fontSize=14;" parent="1" vertex="1">
          <mxGeometry x="387" y="-718.5" width="140" height="100" as="geometry"/>
        </mxCell>
        <mxCell id="sQQmF4ldZeJKrUhW-fq7-192" value="#* id&#xa;* nombre&#xa;&#xa;&#xa;" style="text;strokeColor=none;fillColor=none;spacingLeft=4;spacingRight=4;overflow=hidden;rotatable=0;points=[[0,0.5],[1,0.5]];portConstraint=eastwest;fontSize=12;" parent="sQQmF4ldZeJKrUhW-fq7-191" vertex="1">
          <mxGeometry y="22" width="140" height="78" as="geometry"/>
        </mxCell>
        <mxCell id="sQQmF4ldZeJKrUhW-fq7-194" value="" style="endArrow=ERmany;html=1;strokeColor=#000000;entryX=0.351;entryY=1.019;entryDx=0;entryDy=0;entryPerimeter=0;endFill=0;" parent="1" target="sQQmF4ldZeJKrUhW-fq7-192" edge="1">
          <mxGeometry width="50" height="50" relative="1" as="geometry">
            <mxPoint x="437" y="-510.5" as="sourcePoint"/>
            <mxPoint x="487" y="-560.5" as="targetPoint"/>
          </mxGeometry>
        </mxCell>
        <mxCell id="sQQmF4ldZeJKrUhW-fq7-195" value="Trata de" style="text;html=1;resizable=0;points=[];autosize=1;align=left;verticalAlign=top;spacingTop=-4;" parent="1" vertex="1">
          <mxGeometry x="447" y="-600" width="60" height="20" as="geometry"/>
        </mxCell>
        <mxCell id="sQQmF4ldZeJKrUhW-fq7-196" value="Tiene" style="text;html=1;resizable=0;points=[];autosize=1;align=left;verticalAlign=top;spacingTop=-4;" parent="1" vertex="1">
          <mxGeometry x="259" y="-378" width="40" height="20" as="geometry"/>
        </mxCell>
        <mxCell id="sQQmF4ldZeJKrUhW-fq7-199" value="Personaje" style="swimlane;fontStyle=0;childLayout=stackLayout;horizontal=1;startSize=22;fillColor=none;horizontalStack=0;resizeParent=1;resizeParentMax=0;resizeLast=0;collapsible=1;marginBottom=0;swimlaneFillColor=#ffffff;align=center;fontSize=14;" parent="1" vertex="1">
          <mxGeometry x="387" y="-970" width="140" height="100" as="geometry"/>
        </mxCell>
        <mxCell id="sQQmF4ldZeJKrUhW-fq7-200" value="#* id&#xa;* nombre&#xa;&#xa;&#xa;" style="text;strokeColor=none;fillColor=none;spacingLeft=4;spacingRight=4;overflow=hidden;rotatable=0;points=[[0,0.5],[1,0.5]];portConstraint=eastwest;fontSize=12;" parent="sQQmF4ldZeJKrUhW-fq7-199" vertex="1">
          <mxGeometry y="22" width="140" height="78" as="geometry"/>
        </mxCell>
        <mxCell id="sQQmF4ldZeJKrUhW-fq7-204" style="edgeStyle=orthogonalEdgeStyle;rounded=0;orthogonalLoop=1;jettySize=auto;html=1;startArrow=none;startFill=0;endArrow=none;endFill=0;strokeColor=#000000;dashed=1;" parent="1" source="sQQmF4ldZeJKrUhW-fq7-13" edge="1">
          <mxGeometry relative="1" as="geometry">
            <mxPoint x="-359" y="161" as="targetPoint"/>
            <Array as="points">
              <mxPoint x="-359" y="90"/>
              <mxPoint x="-359" y="161"/>
            </Array>
          </mxGeometry>
        </mxCell>
        <mxCell id="sQQmF4ldZeJKrUhW-fq7-205" value="" style="endArrow=ERmany;html=1;strokeColor=#000000;entryX=0;entryY=0.5;entryDx=0;entryDy=0;endFill=0;" parent="1" target="sQQmF4ldZeJKrUhW-fq7-147" edge="1">
          <mxGeometry width="50" height="50" relative="1" as="geometry">
            <mxPoint x="-358" y="160" as="sourcePoint"/>
            <mxPoint x="-308" y="110" as="targetPoint"/>
          </mxGeometry>
        </mxCell>
        <mxCell id="sQQmF4ldZeJKrUhW-fq7-207" value="" style="endArrow=none;dashed=1;html=1;strokeColor=#000000;exitX=1;exitY=0.5;exitDx=0;exitDy=0;" parent="1" source="sQQmF4ldZeJKrUhW-fq7-147" edge="1">
          <mxGeometry width="50" height="50" relative="1" as="geometry">
            <mxPoint x="-23" y="270" as="sourcePoint"/>
            <mxPoint x="747" y="160" as="targetPoint"/>
          </mxGeometry>
        </mxCell>
        <mxCell id="sQQmF4ldZeJKrUhW-fq7-210" value="Valoración obra" style="swimlane;fontStyle=0;childLayout=stackLayout;horizontal=1;startSize=22;fillColor=none;horizontalStack=0;resizeParent=1;resizeParentMax=0;resizeLast=0;collapsible=1;marginBottom=0;swimlaneFillColor=#ffffff;align=center;fontSize=14;" parent="1" vertex="1">
          <mxGeometry x="-572" y="-1200" width="140" height="100" as="geometry"/>
        </mxCell>
        <mxCell id="sQQmF4ldZeJKrUhW-fq7-211" value="#* id&#xa;* calificación&#xa;&#xa;" style="text;strokeColor=none;fillColor=none;spacingLeft=4;spacingRight=4;overflow=hidden;rotatable=0;points=[[0,0.5],[1,0.5]];portConstraint=eastwest;fontSize=12;" parent="sQQmF4ldZeJKrUhW-fq7-210" vertex="1">
          <mxGeometry y="22" width="140" height="78" as="geometry"/>
        </mxCell>
        <mxCell id="sQQmF4ldZeJKrUhW-fq7-221" style="edgeStyle=orthogonalEdgeStyle;rounded=0;orthogonalLoop=1;jettySize=auto;html=1;entryX=0;entryY=0.5;entryDx=0;entryDy=0;startArrow=ERoneToMany;startFill=0;endArrow=none;endFill=0;strokeColor=#000000;" parent="1" source="sQQmF4ldZeJKrUhW-fq7-218" target="sQQmF4ldZeJKrUhW-fq7-192" edge="1">
          <mxGeometry relative="1" as="geometry">
            <Array as="points">
              <mxPoint x="-723" y="-1060"/>
              <mxPoint x="357" y="-1060"/>
              <mxPoint x="357" y="-658"/>
            </Array>
          </mxGeometry>
        </mxCell>
        <mxCell id="sQQmF4ldZeJKrUhW-fq7-218" value="C_O" style="swimlane;fontStyle=0;childLayout=stackLayout;horizontal=1;startSize=22;fillColor=none;horizontalStack=0;resizeParent=1;resizeParentMax=0;resizeLast=0;collapsible=1;marginBottom=0;swimlaneFillColor=#ffffff;align=center;fontSize=14;" parent="1" vertex="1">
          <mxGeometry x="-793" y="-980" width="140" height="90" as="geometry"/>
        </mxCell>
        <mxCell id="sQQmF4ldZeJKrUhW-fq7-219" value="* estatus de obra&#xa;* costo de entrada&#xa;" style="text;strokeColor=none;fillColor=none;spacingLeft=4;spacingRight=4;overflow=hidden;rotatable=0;points=[[0,0.5],[1,0.5]];portConstraint=eastwest;fontSize=12;" parent="sQQmF4ldZeJKrUhW-fq7-218" vertex="1">
          <mxGeometry y="22" width="140" height="68" as="geometry"/>
        </mxCell>
        <mxCell id="sQQmF4ldZeJKrUhW-fq7-220" value="" style="endArrow=ERoneToMany;dashed=1;html=1;strokeColor=#000000;edgeStyle=orthogonalEdgeStyle;endFill=0;" parent="1" target="sQQmF4ldZeJKrUhW-fq7-219" edge="1">
          <mxGeometry width="50" height="50" relative="1" as="geometry">
            <mxPoint x="-563" y="-679" as="sourcePoint"/>
            <mxPoint x="-513" y="-729" as="targetPoint"/>
            <Array as="points">
              <mxPoint x="-563" y="-700"/>
              <mxPoint x="-613" y="-700"/>
              <mxPoint x="-613" y="-924"/>
            </Array>
          </mxGeometry>
        </mxCell>
        <mxCell id="sQQmF4ldZeJKrUhW-fq7-222" value="Participa" style="text;html=1;resizable=0;points=[];autosize=1;align=left;verticalAlign=top;spacingTop=-4;" parent="1" vertex="1">
          <mxGeometry x="-718" y="-1080" width="60" height="20" as="geometry"/>
        </mxCell>
        <mxCell id="sQQmF4ldZeJKrUhW-fq7-225" value="Histórico de ventas" style="swimlane;fontStyle=0;childLayout=stackLayout;horizontal=1;startSize=22;fillColor=none;horizontalStack=0;resizeParent=1;resizeParentMax=0;resizeLast=0;collapsible=1;marginBottom=0;swimlaneFillColor=#ffffff;align=center;fontSize=14;" parent="1" vertex="1">
          <mxGeometry x="-810" y="-840" width="160" height="90" as="geometry"/>
        </mxCell>
        <mxCell id="sQQmF4ldZeJKrUhW-fq7-226" value="#* fecha de emisión entrada&#xa;o fecha compra entrada&#xa;" style="text;strokeColor=none;fillColor=none;spacingLeft=4;spacingRight=4;overflow=hidden;rotatable=0;points=[[0,0.5],[1,0.5]];portConstraint=eastwest;fontSize=12;" parent="sQQmF4ldZeJKrUhW-fq7-225" vertex="1">
          <mxGeometry y="22" width="160" height="68" as="geometry"/>
        </mxCell>
        <mxCell id="sQQmF4ldZeJKrUhW-fq7-230" value="Tiene" style="text;html=1;resizable=0;points=[];autosize=1;align=left;verticalAlign=top;spacingTop=-4;" parent="1" vertex="1">
          <mxGeometry x="-278" y="-398" width="40" height="20" as="geometry"/>
        </mxCell>
        <mxCell id="sQQmF4ldZeJKrUhW-fq7-231" value="Tiene" style="text;html=1;resizable=0;points=[];autosize=1;align=left;verticalAlign=top;spacingTop=-4;" parent="1" vertex="1">
          <mxGeometry x="-420" y="98" width="40" height="20" as="geometry"/>
        </mxCell>
        <mxCell id="A2KmFK_LKmNko3JUdiQB-1" value="Control de asistencia" style="swimlane;fontStyle=0;childLayout=stackLayout;horizontal=1;startSize=22;fillColor=none;horizontalStack=0;resizeParent=1;resizeParentMax=0;resizeLast=0;collapsible=1;marginBottom=0;swimlaneFillColor=#ffffff;align=center;fontSize=14;" parent="1" vertex="1">
          <mxGeometry x="-163" y="-40" width="170" height="80" as="geometry"/>
        </mxCell>
        <mxCell id="A2KmFK_LKmNko3JUdiQB-3" style="edgeStyle=orthogonalEdgeStyle;rounded=0;orthogonalLoop=1;jettySize=auto;html=1;entryX=0;entryY=0.5;entryDx=0;entryDy=0;endArrow=none;endFill=0;startArrow=ERoneToMany;startFill=0;" parent="1" target="sQQmF4ldZeJKrUhW-fq7-119" edge="1">
          <mxGeometry relative="1" as="geometry">
            <Array as="points">
              <mxPoint x="-393" y="-10"/>
              <mxPoint x="-393" y="-249"/>
            </Array>
            <mxPoint x="-163" y="-10" as="sourcePoint"/>
          </mxGeometry>
        </mxCell>
        <mxCell id="A2KmFK_LKmNko3JUdiQB-4" value="" style="endArrow=none;html=1;edgeStyle=orthogonalEdgeStyle;dashed=1;" parent="1" edge="1">
          <mxGeometry width="50" height="50" relative="1" as="geometry">
            <mxPoint x="-413" y="-460" as="sourcePoint"/>
            <mxPoint x="-305" y="-573" as="targetPoint"/>
            <Array as="points">
              <mxPoint x="-403" y="-500"/>
              <mxPoint x="-323" y="-500"/>
              <mxPoint x="-323" y="-573"/>
            </Array>
          </mxGeometry>
        </mxCell>
        <mxCell id="A2KmFK_LKmNko3JUdiQB-6" style="edgeStyle=orthogonalEdgeStyle;rounded=0;orthogonalLoop=1;jettySize=auto;html=1;endArrow=none;endFill=0;startArrow=ERmany;startFill=0;" parent="1" edge="1">
          <mxGeometry relative="1" as="geometry">
            <mxPoint x="-413" y="-460" as="targetPoint"/>
            <Array as="points">
              <mxPoint x="-413" y="23"/>
              <mxPoint x="-413" y="-460"/>
            </Array>
            <mxPoint x="-163" y="23" as="sourcePoint"/>
          </mxGeometry>
        </mxCell>
        <mxCell id="A2KmFK_LKmNko3JUdiQB-7" value="Tiene" style="text;html=1;resizable=0;points=[];autosize=1;align=left;verticalAlign=top;spacingTop=-4;" parent="1" vertex="1">
          <mxGeometry x="-338" y="-270" width="40" height="20" as="geometry"/>
        </mxCell>
        <mxCell id="A2KmFK_LKmNko3JUdiQB-12" value="&lt;div style=&quot;font-size: 10px&quot;&gt;&lt;font style=&quot;font-size: 10px&quot;&gt;Es preferido&lt;/font&gt;&lt;/div&gt;&lt;div style=&quot;font-size: 10px&quot;&gt;&lt;font style=&quot;font-size: 10px&quot;&gt;por&lt;br&gt;&lt;/font&gt;&lt;/div&gt;" style="text;html=1;resizable=0;points=[];autosize=1;align=left;verticalAlign=top;spacingTop=-4;" parent="1" vertex="1">
          <mxGeometry x="137" y="-290" width="70" height="30" as="geometry"/>
        </mxCell>
        <mxCell id="A2KmFK_LKmNko3JUdiQB-13" value="Tiene" style="text;html=1;resizable=0;points=[];autosize=1;align=left;verticalAlign=top;spacingTop=-4;" parent="1" vertex="1">
          <mxGeometry x="-323" y="-535" width="40" height="20" as="geometry"/>
        </mxCell>
        <mxCell id="A2KmFK_LKmNko3JUdiQB-14" value="Está asociado a" style="text;html=1;resizable=0;points=[];autosize=1;align=left;verticalAlign=top;spacingTop=-4;" parent="1" vertex="1">
          <mxGeometry x="-263" y="1.5" width="100" height="20" as="geometry"/>
        </mxCell>
        <mxCell id="yUuT4NI_DrZhigZ8Hj7e-4" value="Puede emitir" style="text;html=1;resizable=0;points=[];autosize=1;align=left;verticalAlign=top;spacingTop=-4;" parent="1" vertex="1">
          <mxGeometry x="-158" y="-652" width="80" height="20" as="geometry"/>
        </mxCell>
        <mxCell id="yUuT4NI_DrZhigZ8Hj7e-8" value="" style="endArrow=none;dashed=1;html=1;edgeStyle=orthogonalEdgeStyle;rounded=0;" parent="1" source="sQQmF4ldZeJKrUhW-fq7-19" edge="1">
          <mxGeometry width="50" height="50" relative="1" as="geometry">
            <mxPoint x="-123" y="-650" as="sourcePoint"/>
            <mxPoint x="-63" y="-705" as="targetPoint"/>
            <Array as="points">
              <mxPoint x="-3" y="-629"/>
              <mxPoint x="-3" y="-705"/>
            </Array>
          </mxGeometry>
        </mxCell>
        <mxCell id="yUuT4NI_DrZhigZ8Hj7e-11" value="" style="endArrow=none;html=1;strokeColor=#000000;edgeStyle=orthogonalEdgeStyle;curved=1;" parent="1" edge="1">
          <mxGeometry width="50" height="50" relative="1" as="geometry">
            <mxPoint x="-40" y="-663" as="sourcePoint"/>
            <mxPoint x="69" y="-663" as="targetPoint"/>
            <Array as="points">
              <mxPoint x="-40" y="-653"/>
              <mxPoint x="69" y="-653"/>
            </Array>
          </mxGeometry>
        </mxCell>
        <mxCell id="yUuT4NI_DrZhigZ8Hj7e-12" value="" style="endArrow=none;html=1;exitX=0.778;exitY=1.3;exitDx=0;exitDy=0;exitPerimeter=0;edgeStyle=orthogonalEdgeStyle;rounded=0;" parent="1" source="sQQmF4ldZeJKrUhW-fq7-82" target="sQQmF4ldZeJKrUhW-fq7-51" edge="1">
          <mxGeometry width="50" height="50" relative="1" as="geometry">
            <mxPoint x="-83" y="-650" as="sourcePoint"/>
            <mxPoint x="-33" y="-700" as="targetPoint"/>
            <Array as="points">
              <mxPoint x="-88" y="-680"/>
              <mxPoint x="-43" y="-680"/>
            </Array>
          </mxGeometry>
        </mxCell>
        <mxCell id="qw_lqS5V0hIstocsAN0Z-1" style="edgeStyle=none;rounded=0;orthogonalLoop=1;jettySize=auto;html=1;entryX=0.55;entryY=-0.044;entryDx=0;entryDy=0;entryPerimeter=0;dashed=1;endArrow=ERoneToMany;endFill=0;" parent="1" source="sQQmF4ldZeJKrUhW-fq7-219" target="sQQmF4ldZeJKrUhW-fq7-225" edge="1">
          <mxGeometry relative="1" as="geometry"/>
        </mxCell>
        <mxCell id="qw_lqS5V0hIstocsAN0Z-3" style="edgeStyle=none;rounded=0;orthogonalLoop=1;jettySize=auto;html=1;endArrow=ERmany;endFill=0;" parent="1" edge="1">
          <mxGeometry relative="1" as="geometry">
            <mxPoint x="-504" y="-680" as="targetPoint"/>
            <mxPoint x="-504" y="-735" as="sourcePoint"/>
          </mxGeometry>
        </mxCell>
        <mxCell id="qw_lqS5V0hIstocsAN0Z-4" value="Tiene" style="text;html=1;resizable=0;points=[];autosize=1;align=left;verticalAlign=top;spacingTop=-4;" parent="1" vertex="1">
          <mxGeometry x="-785" y="-858" width="40" height="20" as="geometry"/>
        </mxCell>
        <mxCell id="UAHOsp1mP3vzKwPEXrRI-11" value="" style="rounded=0;orthogonalLoop=1;jettySize=auto;html=1;startArrow=none;startFill=0;endArrow=none;endFill=0;dashed=1;" edge="1" parent="1" source="UAHOsp1mP3vzKwPEXrRI-1">
          <mxGeometry relative="1" as="geometry">
            <mxPoint x="-510" y="-1060" as="targetPoint"/>
          </mxGeometry>
        </mxCell>
        <mxCell id="UAHOsp1mP3vzKwPEXrRI-16" style="edgeStyle=orthogonalEdgeStyle;rounded=0;orthogonalLoop=1;jettySize=auto;html=1;entryX=0;entryY=0.5;entryDx=0;entryDy=0;startArrow=none;startFill=0;endArrow=ERoneToMany;endFill=0;" edge="1" parent="1" source="UAHOsp1mP3vzKwPEXrRI-1" target="UAHOsp1mP3vzKwPEXrRI-14">
          <mxGeometry relative="1" as="geometry">
            <Array as="points">
              <mxPoint x="-410" y="-1125"/>
            </Array>
          </mxGeometry>
        </mxCell>
        <mxCell id="UAHOsp1mP3vzKwPEXrRI-1" value="Histórico de presentaciones" style="swimlane;fontStyle=0;childLayout=stackLayout;horizontal=1;startSize=22;fillColor=none;horizontalStack=0;resizeParent=1;resizeParentMax=0;resizeLast=0;collapsible=1;marginBottom=0;swimlaneFillColor=#ffffff;align=center;fontSize=14;" vertex="1" parent="1">
          <mxGeometry x="-610" y="-1027" width="200" height="100" as="geometry"/>
        </mxCell>
        <mxCell id="UAHOsp1mP3vzKwPEXrRI-2" value="#* fecha de inicio&#xa;o fecha fin&#xa;&#xa;&#xa;&#xa;" style="text;strokeColor=none;fillColor=none;spacingLeft=4;spacingRight=4;overflow=hidden;rotatable=0;points=[[0,0.5],[1,0.5]];portConstraint=eastwest;fontSize=12;" vertex="1" parent="UAHOsp1mP3vzKwPEXrRI-1">
          <mxGeometry y="22" width="200" height="78" as="geometry"/>
        </mxCell>
        <mxCell id="UAHOsp1mP3vzKwPEXrRI-3" style="edgeStyle=orthogonalEdgeStyle;rounded=0;orthogonalLoop=1;jettySize=auto;html=1;startArrow=none;startFill=0;endArrow=ERoneToMany;endFill=0;entryX=0.679;entryY=0.011;entryDx=0;entryDy=0;entryPerimeter=0;" edge="1" parent="1" source="UAHOsp1mP3vzKwPEXrRI-2" target="sQQmF4ldZeJKrUhW-fq7-218">
          <mxGeometry relative="1" as="geometry">
            <mxPoint x="-700" y="-990" as="targetPoint"/>
            <Array as="points">
              <mxPoint x="-698" y="-1000"/>
            </Array>
          </mxGeometry>
        </mxCell>
        <mxCell id="UAHOsp1mP3vzKwPEXrRI-5" style="edgeStyle=orthogonalEdgeStyle;rounded=0;orthogonalLoop=1;jettySize=auto;html=1;entryX=-0.021;entryY=0.859;entryDx=0;entryDy=0;startArrow=ERoneToMany;startFill=0;endArrow=none;endFill=0;exitX=0.505;exitY=1.026;exitDx=0;exitDy=0;exitPerimeter=0;entryPerimeter=0;" edge="1" parent="1" source="UAHOsp1mP3vzKwPEXrRI-2" target="sQQmF4ldZeJKrUhW-fq7-147">
          <mxGeometry relative="1" as="geometry">
            <Array as="points">
              <mxPoint x="-509" y="-890"/>
              <mxPoint x="-630" y="-890"/>
              <mxPoint x="-630" y="189"/>
            </Array>
          </mxGeometry>
        </mxCell>
        <mxCell id="UAHOsp1mP3vzKwPEXrRI-8" value="Se presenta en" style="text;html=1;resizable=0;points=[];autosize=1;align=left;verticalAlign=top;spacingTop=-4;" vertex="1" parent="1">
          <mxGeometry x="-503" y="-911" width="90" height="20" as="geometry"/>
        </mxCell>
        <mxCell id="UAHOsp1mP3vzKwPEXrRI-9" value="" style="endArrow=none;html=1;" edge="1" parent="1">
          <mxGeometry width="50" height="50" relative="1" as="geometry">
            <mxPoint x="-60" y="-138" as="sourcePoint"/>
            <mxPoint x="-60" y="-190" as="targetPoint"/>
          </mxGeometry>
        </mxCell>
        <mxCell id="UAHOsp1mP3vzKwPEXrRI-12" value="" style="rounded=0;orthogonalLoop=1;jettySize=auto;html=1;startArrow=none;startFill=0;endArrow=ERmany;endFill=0;entryX=0.443;entryY=1;entryDx=0;entryDy=0;entryPerimeter=0;" edge="1" parent="1" target="sQQmF4ldZeJKrUhW-fq7-211">
          <mxGeometry relative="1" as="geometry">
            <mxPoint x="-510" y="-1060" as="sourcePoint"/>
            <mxPoint x="-502" y="-1110" as="targetPoint"/>
          </mxGeometry>
        </mxCell>
        <mxCell id="UAHOsp1mP3vzKwPEXrRI-17" style="edgeStyle=orthogonalEdgeStyle;rounded=0;orthogonalLoop=1;jettySize=auto;html=1;entryX=0.5;entryY=0;entryDx=0;entryDy=0;startArrow=ERoneToMany;startFill=0;endArrow=none;endFill=0;" edge="1" parent="1" source="UAHOsp1mP3vzKwPEXrRI-14" target="sQQmF4ldZeJKrUhW-fq7-199">
          <mxGeometry relative="1" as="geometry"/>
        </mxCell>
        <mxCell id="UAHOsp1mP3vzKwPEXrRI-14" value="P_HP_L_O (Personaje_Presentación_Lector)" style="swimlane;fontStyle=0;childLayout=stackLayout;horizontal=1;startSize=22;fillColor=none;horizontalStack=0;resizeParent=1;resizeParentMax=0;resizeLast=0;collapsible=1;marginBottom=0;swimlaneFillColor=#ffffff;align=center;fontSize=14;" vertex="1" parent="1">
          <mxGeometry x="-180" y="-1170" width="330" height="90" as="geometry"/>
        </mxCell>
      </root>
    </mxGraphModel>
  </diagram>
</mxfile>
